<?xml version="1.0" encoding="UTF-8" standalone="no"?>
<!DOCTYPE svg PUBLIC "-//W3C//DTD SVG 1.1//EN"
 "http://www.w3.org/Graphics/SVG/1.1/DTD/svg11.dtd">
<!-- Generated by graphviz version 2.30.1 (20180420.1509)
 -->
<!-- Title: G Pages: 1 -->
<svg width="570pt" height="1326pt"
 viewBox="0.00 0.00 570.00 1326.00" xmlns="http://www.w3.org/2000/svg" xmlns:xlink="http://www.w3.org/1999/xlink">
<g id="graph0" class="graph" transform="scale(1 1) rotate(0) translate(4 1322)">
<title>G</title>
<polygon fill="white" stroke="white" points="-4,5 -4,-1322 567,-1322 567,5 -4,5"/>
<g id="clust1" class="cluster"><title>cluster_Global</title>
<path fill="none" stroke="gray" d="M20,-8C20,-8 542,-8 542,-8 548,-8 554,-14 554,-20 554,-20 554,-1298 554,-1298 554,-1304 548,-1310 542,-1310 542,-1310 20,-1310 20,-1310 14,-1310 8,-1304 8,-1298 8,-1298 8,-20 8,-20 8,-14 14,-8 20,-8"/>
<text text-anchor="middle" x="281" y="-1297.2" font-family="Times,serif" font-size="11.00" fill="gray">Global</text>
</g>
<g id="clust2" class="cluster"><title>cluster_\LumaSMS</title>
<path fill="none" stroke="gray" d="M28,-16C28,-16 534,-16 534,-16 540,-16 546,-22 546,-28 546,-28 546,-1270 546,-1270 546,-1276 540,-1282 534,-1282 534,-1282 28,-1282 28,-1282 22,-1282 16,-1276 16,-1270 16,-1270 16,-28 16,-28 16,-22 22,-16 28,-16"/>
<text text-anchor="middle" x="281" y="-1269.2" font-family="Times,serif" font-size="11.00" fill="gray">LumaSMS</text>
</g>
<g id="clust3" class="cluster"><title>cluster_\LumaSMS\core</title>
<path fill="none" stroke="gray" d="M36,-346C36,-346 296,-346 296,-346 302,-346 308,-352 308,-358 308,-358 308,-568 308,-568 308,-574 302,-580 296,-580 296,-580 36,-580 36,-580 30,-580 24,-574 24,-568 24,-568 24,-358 24,-358 24,-352 30,-346 36,-346"/>
<text text-anchor="middle" x="166" y="-567.2" font-family="Times,serif" font-size="11.00" fill="gray">core</text>
</g>
<g id="clust4" class="cluster"><title>cluster_\LumaSMS\install</title>
<path fill="none" stroke="gray" d="M386,-966C386,-966 516,-966 516,-966 522,-966 528,-972 528,-978 528,-978 528,-1242 528,-1242 528,-1248 522,-1254 516,-1254 516,-1254 386,-1254 386,-1254 380,-1254 374,-1248 374,-1242 374,-1242 374,-978 374,-978 374,-972 380,-966 386,-966"/>
<text text-anchor="middle" x="451" y="-1241.2" font-family="Times,serif" font-size="11.00" fill="gray">install</text>
</g>
<g id="clust5" class="cluster"><title>cluster_\LumaSMS\controllers</title>
<path fill="none" stroke="gray" d="M376,-508C376,-508 526,-508 526,-508 532,-508 538,-514 538,-520 538,-520 538,-946 538,-946 538,-952 532,-958 526,-958 526,-958 376,-958 376,-958 370,-958 364,-952 364,-946 364,-946 364,-520 364,-520 364,-514 370,-508 376,-508"/>
<text text-anchor="middle" x="451" y="-945.2" font-family="Times,serif" font-size="11.00" fill="gray">controllers</text>
</g>
<g id="clust6" class="cluster"><title>cluster_\LumaSMS\dbdrivers</title>
<path fill="none" stroke="gray" d="M382,-428C382,-428 520,-428 520,-428 526,-428 532,-434 532,-440 532,-440 532,-488 532,-488 532,-494 526,-500 520,-500 520,-500 382,-500 382,-500 376,-500 370,-494 370,-488 370,-488 370,-440 370,-440 370,-434 376,-428 382,-428"/>
<text text-anchor="middle" x="451" y="-487.2" font-family="Times,serif" font-size="11.00" fill="gray">dbdrivers</text>
</g>
<g id="clust7" class="cluster"><title>cluster_\LumaSMS\models</title>
<path fill="none" stroke="gray" d="M403,-24C403,-24 499,-24 499,-24 505,-24 511,-30 511,-36 511,-36 511,-408 511,-408 511,-414 505,-420 499,-420 499,-420 403,-420 403,-420 397,-420 391,-414 391,-408 391,-408 391,-36 391,-36 391,-30 397,-24 403,-24"/>
<text text-anchor="middle" x="451" y="-407.2" font-family="Times,serif" font-size="11.00" fill="gray">models</text>
</g>
<!-- \\LumaSMS\\core\\Model -->
<g id="node1" class="node"><title>\\LumaSMS\\core\\Model</title>
<polygon fill="none" stroke="black" points="271,-390 217,-390 217,-354 271,-354 271,-390"/>
<text text-anchor="middle" x="244" y="-369.2" font-family="Courier,monospace" font-size="11.00">Model</text>
</g>
<!-- \\LumaSMS\\core\\Controller -->
<g id="node2" class="node"><title>\\LumaSMS\\core\\Controller</title>
<polygon fill="none" stroke="black" points="116,-552 32,-552 32,-516 116,-516 116,-552"/>
<text text-anchor="middle" x="74" y="-531.2" font-family="Courier,monospace" font-size="11.00">Controller</text>
</g>
<!-- \\LumaSMS\\core\\DatabaseDriver -->
<g id="node3" class="node"><title>\\LumaSMS\\core\\DatabaseDriver</title>
<polygon fill="none" stroke="black" points="299.5,-498 188.5,-498 188.5,-462 299.5,-462 299.5,-498"/>
<text text-anchor="middle" x="244" y="-477.2" font-family="Courier,monospace" font-size="11.00">DatabaseDriver</text>
</g>
<!-- \\LumaSMS\\core\\Autoloader -->
<g id="node4" class="node"><title>\\LumaSMS\\core\\Autoloader</title>
<polygon fill="none" stroke="black" points="286,-444 202,-444 202,-408 286,-408 286,-444"/>
<text text-anchor="middle" x="244" y="-423.2" font-family="Courier,monospace" font-size="11.00">Autoloader</text>
</g>
<!-- \\LumaSMS\\core\\CRUDController -->
<g id="node5" class="node"><title>\\LumaSMS\\core\\CRUDController</title>
<polygon fill="none" stroke="black" points="299.5,-552 188.5,-552 188.5,-516 299.5,-516 299.5,-552"/>
<text text-anchor="middle" x="244" y="-531.2" font-family="Courier,monospace" font-size="11.00">CRUDController</text>
</g>
<!-- \\LumaSMS\\core\\CRUDController&#45;&gt;\\LumaSMS\\core\\Controller -->
<g id="edge14" class="edge"><title>\\LumaSMS\\core\\CRUDController&#45;&gt;\\LumaSMS\\core\\Controller</title>
<path fill="none" stroke="black" d="M188.455,-534C168.466,-534 145.929,-534 126.239,-534"/>
<polygon fill="none" stroke="black" points="126.231,-530.5 116.231,-534 126.231,-537.5 126.231,-530.5"/>
</g>
<!-- \\LumaSMS\\install\\TemplateManager -->
<g id="node6" class="node"><title>\\LumaSMS\\install\\TemplateManager</title>
<polygon fill="none" stroke="black" points="510,-1226 392,-1226 392,-1190 510,-1190 510,-1226"/>
<text text-anchor="middle" x="451" y="-1205.2" font-family="Courier,monospace" font-size="11.00">TemplateManager</text>
</g>
<!-- \\LumaSMS\\install\\FileManager -->
<g id="node7" class="node"><title>\\LumaSMS\\install\\FileManager</title>
<polygon fill="none" stroke="black" points="496.5,-1172 405.5,-1172 405.5,-1136 496.5,-1136 496.5,-1172"/>
<text text-anchor="middle" x="451" y="-1151.2" font-family="Courier,monospace" font-size="11.00">FileManager</text>
</g>
<!-- \\LumaSMS\\install\\SettingsManager -->
<g id="node8" class="node"><title>\\LumaSMS\\install\\SettingsManager</title>
<polygon fill="none" stroke="black" points="510,-1118 392,-1118 392,-1082 510,-1082 510,-1118"/>
<text text-anchor="middle" x="451" y="-1097.2" font-family="Courier,monospace" font-size="11.00">SettingsManager</text>
</g>
<!-- \\LumaSMS\\install\\DatabaseManager -->
<g id="node9" class="node"><title>\\LumaSMS\\install\\DatabaseManager</title>
<polygon fill="none" stroke="black" points="510,-1064 392,-1064 392,-1028 510,-1028 510,-1064"/>
<text text-anchor="middle" x="451" y="-1043.2" font-family="Courier,monospace" font-size="11.00">DatabaseManager</text>
</g>
<!-- \\LumaSMS\\install\\EnvironmentManager -->
<g id="node10" class="node"><title>\\LumaSMS\\install\\EnvironmentManager</title>
<polygon fill="none" stroke="black" points="520,-1010 382,-1010 382,-974 520,-974 520,-1010"/>
<text text-anchor="middle" x="451" y="-989.2" font-family="Courier,monospace" font-size="11.00">EnvironmentManager</text>
</g>
<!-- \\LumaSMS\\controllers\\HowtosController -->
<g id="node11" class="node"><title>\\LumaSMS\\controllers\\HowtosController</title>
<polygon fill="none" stroke="black" points="513.5,-822 388.5,-822 388.5,-786 513.5,-786 513.5,-822"/>
<text text-anchor="middle" x="451" y="-801.2" font-family="Courier,monospace" font-size="11.00">HowtosController</text>
</g>
<!-- \\LumaSMS\\controllers\\HowtosController&#45;&gt;\\LumaSMS\\core\\CRUDController -->
<g id="edge1" class="edge"><title>\\LumaSMS\\controllers\\HowtosController&#45;&gt;\\LumaSMS\\core\\CRUDController</title>
<path fill="none" stroke="black" d="M388.482,-791.515C379.629,-787.853 371.122,-783.119 364,-777 296.142,-718.697 263.388,-612.65 251.063,-562.167"/>
<polygon fill="none" stroke="black" points="254.434,-561.209 248.738,-552.275 247.619,-562.811 254.434,-561.209"/>
</g>
<!-- \\LumaSMS\\controllers\\SoundsController -->
<g id="node12" class="node"><title>\\LumaSMS\\controllers\\SoundsController</title>
<polygon fill="none" stroke="black" points="513.5,-768 388.5,-768 388.5,-732 513.5,-732 513.5,-768"/>
<text text-anchor="middle" x="451" y="-747.2" font-family="Courier,monospace" font-size="11.00">SoundsController</text>
</g>
<!-- \\LumaSMS\\controllers\\SoundsController&#45;&gt;\\LumaSMS\\core\\CRUDController -->
<g id="edge3" class="edge"><title>\\LumaSMS\\controllers\\SoundsController&#45;&gt;\\LumaSMS\\core\\CRUDController</title>
<path fill="none" stroke="black" d="M388.145,-736.472C379.536,-732.956 371.19,-728.54 364,-723 308.103,-679.927 271.539,-602.576 255.071,-561.453"/>
<polygon fill="none" stroke="black" points="258.302,-560.105 251.407,-552.06 251.78,-562.648 258.302,-560.105"/>
</g>
<!-- \\LumaSMS\\controllers\\InformationController -->
<g id="node13" class="node"><title>\\LumaSMS\\controllers\\InformationController</title>
<polygon fill="none" stroke="black" points="530,-876 372,-876 372,-840 530,-840 530,-876"/>
<text text-anchor="middle" x="451" y="-855.2" font-family="Courier,monospace" font-size="11.00">InformationController</text>
</g>
<!-- \\LumaSMS\\controllers\\InformationController&#45;&gt;\\LumaSMS\\core\\Controller -->
<g id="edge4" class="edge"><title>\\LumaSMS\\controllers\\InformationController&#45;&gt;\\LumaSMS\\core\\Controller</title>
<path fill="none" stroke="black" d="M382.83,-876.016C332.07,-887.955 267.432,-899.06 245,-885"/>
<path fill="none" stroke="black" d="M243,-885C126.177,-811.777 88.8482,-632.232 78.512,-562.419"/>
<polygon fill="none" stroke="black" points="81.9324,-561.606 77.0769,-552.19 75.0003,-562.579 81.9324,-561.606"/>
</g>
<!-- \\LumaSMS\\controllers\\GamesController -->
<g id="node14" class="node"><title>\\LumaSMS\\controllers\\GamesController</title>
<polygon fill="none" stroke="black" points="510,-660 392,-660 392,-624 510,-624 510,-660"/>
<text text-anchor="middle" x="451" y="-639.2" font-family="Courier,monospace" font-size="11.00">GamesController</text>
</g>
<!-- \\LumaSMS\\controllers\\GamesController&#45;&gt;\\LumaSMS\\core\\CRUDController -->
<g id="edge5" class="edge"><title>\\LumaSMS\\controllers\\GamesController&#45;&gt;\\LumaSMS\\core\\CRUDController</title>
<path fill="none" stroke="black" d="M391.735,-626.269C382.28,-622.992 372.733,-619.228 364,-615 331.947,-599.48 298.706,-576.14 275.531,-558.495"/>
<polygon fill="none" stroke="black" points="277.525,-555.613 267.469,-552.277 273.25,-561.156 277.525,-555.613"/>
</g>
<!-- \\LumaSMS\\controllers\\UpdatesController -->
<g id="node15" class="node"><title>\\LumaSMS\\controllers\\UpdatesController</title>
<polygon fill="none" stroke="black" points="516.5,-606 385.5,-606 385.5,-570 516.5,-570 516.5,-606"/>
<text text-anchor="middle" x="451" y="-585.2" font-family="Courier,monospace" font-size="11.00">UpdatesController</text>
</g>
<!-- \\LumaSMS\\controllers\\UpdatesController&#45;&gt;\\LumaSMS\\core\\CRUDController -->
<g id="edge9" class="edge"><title>\\LumaSMS\\controllers\\UpdatesController&#45;&gt;\\LumaSMS\\core\\CRUDController</title>
<path fill="none" stroke="black" d="M385.418,-570.988C361.178,-564.603 333.644,-557.35 309.418,-550.969"/>
<polygon fill="none" stroke="black" points="310.172,-547.548 299.611,-548.385 308.389,-554.317 310.172,-547.548"/>
</g>
<!-- \\LumaSMS\\controllers\\MiscController -->
<g id="node16" class="node"><title>\\LumaSMS\\controllers\\MiscController</title>
<polygon fill="none" stroke="black" points="506.5,-552 395.5,-552 395.5,-516 506.5,-516 506.5,-552"/>
<text text-anchor="middle" x="451" y="-531.2" font-family="Courier,monospace" font-size="11.00">MiscController</text>
</g>
<!-- \\LumaSMS\\controllers\\MiscController&#45;&gt;\\LumaSMS\\core\\CRUDController -->
<g id="edge11" class="edge"><title>\\LumaSMS\\controllers\\MiscController&#45;&gt;\\LumaSMS\\core\\CRUDController</title>
<path fill="none" stroke="black" d="M395.333,-534C369.04,-534 337.333,-534 309.83,-534"/>
<polygon fill="none" stroke="black" points="309.515,-530.5 299.515,-534 309.515,-537.5 309.515,-530.5"/>
</g>
<!-- \\LumaSMS\\controllers\\UsersController -->
<g id="node17" class="node"><title>\\LumaSMS\\controllers\\UsersController</title>
<polygon fill="none" stroke="black" points="510,-930 392,-930 392,-894 510,-894 510,-930"/>
<text text-anchor="middle" x="451" y="-909.2" font-family="Courier,monospace" font-size="11.00">UsersController</text>
</g>
<!-- \\LumaSMS\\controllers\\UsersController&#45;&gt;\\LumaSMS\\core\\Controller -->
<g id="edge13" class="edge"><title>\\LumaSMS\\controllers\\UsersController&#45;&gt;\\LumaSMS\\core\\Controller</title>
<path fill="none" stroke="black" d="M391.769,-916.782C348.188,-917.565 288.8,-912.453 245,-885"/>
</g>
<!-- \\LumaSMS\\controllers\\SpritesController -->
<g id="node18" class="node"><title>\\LumaSMS\\controllers\\SpritesController</title>
<polygon fill="none" stroke="black" points="516.5,-714 385.5,-714 385.5,-678 516.5,-678 516.5,-714"/>
<text text-anchor="middle" x="451" y="-693.2" font-family="Courier,monospace" font-size="11.00">SpritesController</text>
</g>
<!-- \\LumaSMS\\controllers\\SpritesController&#45;&gt;\\LumaSMS\\core\\CRUDController -->
<g id="edge16" class="edge"><title>\\LumaSMS\\controllers\\SpritesController&#45;&gt;\\LumaSMS\\core\\CRUDController</title>
<path fill="none" stroke="black" d="M385.305,-679.97C377.84,-676.892 370.561,-673.264 364,-669 319.889,-640.335 282.324,-590.975 261.776,-560.545"/>
<polygon fill="none" stroke="black" points="264.639,-558.529 256.199,-552.125 258.803,-562.395 264.639,-558.529"/>
</g>
<!-- \\LumaSMS\\dbdrivers\\MySQLDatabaseDriver -->
<g id="node19" class="node"><title>\\LumaSMS\\dbdrivers\\MySQLDatabaseDriver</title>
<polygon fill="none" stroke="black" points="523.5,-472 378.5,-472 378.5,-436 523.5,-436 523.5,-472"/>
<text text-anchor="middle" x="451" y="-451.2" font-family="Courier,monospace" font-size="11.00">MySQLDatabaseDriver</text>
</g>
<!-- \\LumaSMS\\dbdrivers\\MySQLDatabaseDriver&#45;&gt;\\LumaSMS\\core\\DatabaseDriver -->
<g id="edge2" class="edge"><title>\\LumaSMS\\dbdrivers\\MySQLDatabaseDriver&#45;&gt;\\LumaSMS\\core\\DatabaseDriver</title>
<path fill="none" stroke="black" d="M378.301,-463.094C355.974,-465.925 331.497,-469.03 309.679,-471.797"/>
<polygon fill="none" stroke="black" points="309.013,-468.353 299.532,-473.084 309.893,-475.298 309.013,-468.353"/>
</g>
<!-- \\LumaSMS\\models\\UpdatesModel -->
<g id="node20" class="node"><title>\\LumaSMS\\models\\UpdatesModel</title>
<polygon fill="none" stroke="black" points="500,-392 402,-392 402,-356 500,-356 500,-392"/>
<text text-anchor="middle" x="451" y="-371.2" font-family="Courier,monospace" font-size="11.00">UpdatesModel</text>
</g>
<!-- \\LumaSMS\\models\\UpdatesModel&#45;&gt;\\LumaSMS\\core\\Model -->
<g id="edge6" class="edge"><title>\\LumaSMS\\models\\UpdatesModel&#45;&gt;\\LumaSMS\\core\\Model</title>
<path fill="none" stroke="black" d="M401.937,-373.531C365.095,-373.172 315.036,-372.683 281.453,-372.356"/>
<polygon fill="none" stroke="black" points="281.2,-368.853 271.166,-372.255 281.131,-375.853 281.2,-368.853"/>
</g>
<!-- \\LumaSMS\\models\\GamesModel -->
<g id="node21" class="node"><title>\\LumaSMS\\models\\GamesModel</title>
<polygon fill="none" stroke="black" points="493,-338 409,-338 409,-302 493,-302 493,-338"/>
<text text-anchor="middle" x="451" y="-317.2" font-family="Courier,monospace" font-size="11.00">GamesModel</text>
</g>
<!-- \\LumaSMS\\models\\GamesModel&#45;&gt;\\LumaSMS\\core\\Model -->
<g id="edge7" class="edge"><title>\\LumaSMS\\models\\GamesModel&#45;&gt;\\LumaSMS\\core\\Model</title>
<path fill="none" stroke="black" d="M408.515,-330.523C371.139,-340.004 316.745,-353.801 281.122,-362.837"/>
<polygon fill="none" stroke="black" points="279.988,-359.514 271.155,-365.365 281.709,-366.299 279.988,-359.514"/>
</g>
<!-- \\LumaSMS\\models\\MiscModel -->
<g id="node22" class="node"><title>\\LumaSMS\\models\\MiscModel</title>
<polygon fill="none" stroke="black" points="489.5,-284 412.5,-284 412.5,-248 489.5,-248 489.5,-284"/>
<text text-anchor="middle" x="451" y="-263.2" font-family="Courier,monospace" font-size="11.00">MiscModel</text>
</g>
<!-- \\LumaSMS\\models\\MiscModel&#45;&gt;\\LumaSMS\\core\\Model -->
<g id="edge8" class="edge"><title>\\LumaSMS\\models\\MiscModel&#45;&gt;\\LumaSMS\\core\\Model</title>
<path fill="none" stroke="black" d="M412.299,-275.342C396.944,-279.78 379.254,-285.723 364,-293 332.306,-308.12 299.263,-330.686 276.062,-347.833"/>
<polygon fill="none" stroke="black" points="273.889,-345.087 267.98,-353.881 278.083,-350.692 273.889,-345.087"/>
</g>
<!-- \\LumaSMS\\models\\HowtosModel -->
<g id="node23" class="node"><title>\\LumaSMS\\models\\HowtosModel</title>
<polygon fill="none" stroke="black" points="496.5,-230 405.5,-230 405.5,-194 496.5,-194 496.5,-230"/>
<text text-anchor="middle" x="451" y="-209.2" font-family="Courier,monospace" font-size="11.00">HowtosModel</text>
</g>
<!-- \\LumaSMS\\models\\HowtosModel&#45;&gt;\\LumaSMS\\core\\Model -->
<g id="edge10" class="edge"><title>\\LumaSMS\\models\\HowtosModel&#45;&gt;\\LumaSMS\\core\\Model</title>
<path fill="none" stroke="black" d="M405.124,-221.178C391.244,-225.273 376.364,-231.03 364,-239 320.387,-267.112 282.91,-315.36 262.204,-345.369"/>
<polygon fill="none" stroke="black" points="259.282,-343.443 256.573,-353.686 265.078,-347.368 259.282,-343.443"/>
</g>
<!-- \\LumaSMS\\models\\SoundsModel -->
<g id="node24" class="node"><title>\\LumaSMS\\models\\SoundsModel</title>
<polygon fill="none" stroke="black" points="496.5,-176 405.5,-176 405.5,-140 496.5,-140 496.5,-176"/>
<text text-anchor="middle" x="451" y="-155.2" font-family="Courier,monospace" font-size="11.00">SoundsModel</text>
</g>
<!-- \\LumaSMS\\models\\SoundsModel&#45;&gt;\\LumaSMS\\core\\Model -->
<g id="edge12" class="edge"><title>\\LumaSMS\\models\\SoundsModel&#45;&gt;\\LumaSMS\\core\\Model</title>
<path fill="none" stroke="black" d="M405.182,-165.745C390.996,-169.777 375.922,-175.859 364,-185 308.564,-227.506 271.911,-303.76 255.278,-344.526"/>
<polygon fill="none" stroke="black" points="252.014,-343.261 251.572,-353.847 258.519,-345.847 252.014,-343.261"/>
</g>
<!-- \\LumaSMS\\models\\SpritesModel -->
<g id="node25" class="node"><title>\\LumaSMS\\models\\SpritesModel</title>
<polygon fill="none" stroke="black" points="500,-122 402,-122 402,-86 500,-86 500,-122"/>
<text text-anchor="middle" x="451" y="-101.2" font-family="Courier,monospace" font-size="11.00">SpritesModel</text>
</g>
<!-- \\LumaSMS\\models\\SpritesModel&#45;&gt;\\LumaSMS\\core\\Model -->
<g id="edge15" class="edge"><title>\\LumaSMS\\models\\SpritesModel&#45;&gt;\\LumaSMS\\core\\Model</title>
<path fill="none" stroke="black" d="M401.908,-111.779C388.503,-115.782 374.698,-121.839 364,-131 296.498,-188.806 263.57,-293.989 251.133,-344.061"/>
<polygon fill="none" stroke="black" points="247.709,-343.333 248.785,-353.873 254.517,-344.962 247.709,-343.333"/>
</g>
<!-- \\LumaSMS\\models\\CommentsModel -->
<g id="node26" class="node"><title>\\LumaSMS\\models\\CommentsModel</title>
<polygon fill="none" stroke="black" points="503,-68 399,-68 399,-32 503,-32 503,-68"/>
<text text-anchor="middle" x="451" y="-47.2" font-family="Courier,monospace" font-size="11.00">CommentsModel</text>
</g>
<!-- \\LumaSMS\\models\\CommentsModel&#45;&gt;\\LumaSMS\\core\\Model -->
<g id="edge17" class="edge"><title>\\LumaSMS\\models\\CommentsModel&#45;&gt;\\LumaSMS\\core\\Model</title>
<path fill="none" stroke="black" d="M398.778,-58.1072C386.234,-62.1071 373.656,-68.0803 364,-77 284.185,-150.73 256.764,-285.383 248.346,-343.76"/>
<polygon fill="none" stroke="black" points="244.868,-343.36 246.987,-353.74 251.804,-344.304 244.868,-343.36"/>
</g>
</g>
</svg>
